<svg width="798" height="523" viewBox="0 0 798 523" fill="none" xmlns="http://www.w3.org/2000/svg">
<path d="M0 317.154V156.083H104.061V190.16H35.9772V224.237H95.8632V256.951H36.2049V317.154H0Z" fill="#C91C22"/>
<path d="M112.304 286.03C112.304 281.032 113.139 276.564 114.809 272.626C116.63 268.689 119.059 265.357 122.095 262.63C125.131 259.753 128.623 257.481 132.57 255.815C136.668 253.998 141.071 252.71 145.777 251.953L172.418 247.864C175.454 247.409 177.579 246.501 178.794 245.138C180.008 243.774 180.615 242.109 180.615 240.14C180.615 236.808 179.173 233.93 176.289 231.507C173.556 229.083 169.458 227.872 163.993 227.872C157.921 227.872 153.215 229.614 149.875 233.097C146.687 236.429 144.942 240.215 144.638 244.456L114.581 238.322C114.885 234.233 116.099 229.992 118.224 225.6C120.35 221.208 123.386 217.194 127.333 213.559C131.431 209.925 136.517 206.896 142.589 204.472C148.661 202.049 155.871 200.837 164.221 200.837C173.329 200.837 181.071 202.049 187.446 204.472C193.822 206.744 198.983 209.925 202.93 214.014C207.029 217.952 209.913 222.571 211.583 227.872C213.404 233.173 214.315 238.701 214.315 244.456V299.661C214.315 304.053 214.467 307.915 214.771 311.247C215.226 314.579 215.53 316.548 215.682 317.154H184.486C184.334 316.699 184.107 315.488 183.803 313.519C183.499 311.399 183.348 308.369 183.348 304.432C180.312 309.278 176.137 313.14 170.824 316.018C165.511 318.896 159.059 320.334 151.469 320.334C145.245 320.334 139.704 319.35 134.847 317.381C129.989 315.564 125.89 313.065 122.551 309.884C119.211 306.703 116.63 303.069 114.809 298.979C113.139 294.89 112.304 290.574 112.304 286.03ZM159.894 295.344C162.475 295.344 164.98 295.042 167.408 294.436C169.989 293.678 172.19 292.467 174.012 290.801C175.985 288.983 177.579 286.636 178.794 283.758C180.008 280.881 180.615 277.246 180.615 272.854V267.856L159.211 271.263C155.568 271.869 152.532 273.157 150.103 275.125C147.674 276.943 146.46 279.82 146.46 283.758C146.46 286.787 147.446 289.514 149.42 291.937C151.545 294.209 155.036 295.344 159.894 295.344Z" fill="#C91C22"/>
<path d="M283.768 204.245H305.856V234.46H283.768V276.716C283.768 281.411 284.907 284.591 287.184 286.257C289.461 287.772 292.497 288.529 296.292 288.529C298.114 288.529 299.784 288.453 301.302 288.302C302.971 287.999 304.338 287.696 305.4 287.393V316.018C304.641 316.321 302.82 316.927 299.935 317.835C297.051 318.744 292.877 319.198 287.412 319.198C275.571 319.198 266.311 316.018 259.632 309.657C252.953 303.144 249.613 294.209 249.613 282.85V234.46H229.575V204.245H235.268C241.188 204.245 245.59 202.503 248.474 199.02C251.359 195.537 252.801 191.144 252.801 185.843V171.304H283.768V204.245Z" fill="#C91C22"/>
<path d="M442.341 314.882C443.555 320.334 446.288 324.802 450.538 328.286C454.789 331.921 460.178 333.738 466.705 333.738C475.358 333.738 482.189 331.466 487.198 326.923C492.208 322.53 494.713 315.185 494.713 304.886V299.661C492.587 302.69 489.02 305.568 484.011 308.294C479.153 311.02 472.625 312.383 464.428 312.383C456.838 312.383 449.855 311.02 443.479 308.294C437.104 305.416 431.563 301.554 426.857 296.708C422.151 291.71 418.432 285.879 415.7 279.215C413.119 272.551 411.829 265.281 411.829 257.405C411.829 249.984 413.119 242.942 415.7 236.278C418.28 229.614 421.848 223.783 426.402 218.785C431.108 213.635 436.648 209.622 443.024 206.744C449.552 203.715 456.686 202.2 464.428 202.2C468.982 202.2 473.005 202.655 476.496 203.564C480.14 204.472 483.252 205.608 485.832 206.971C488.413 208.334 490.538 209.849 492.208 211.515C493.878 213.181 495.092 214.771 495.851 216.286V204.245H528.868V303.069C528.868 311.247 527.654 318.971 525.225 326.241C522.948 333.511 519.305 339.948 514.295 345.551C509.438 351.155 503.214 355.547 495.624 358.728C488.033 362.06 478.925 363.726 468.299 363.726C460.102 363.726 452.663 362.59 445.984 360.318C439.457 358.046 433.764 355.017 428.906 351.231C424.201 347.445 420.33 343.128 417.294 338.282C414.409 333.435 412.588 328.513 411.829 323.515L442.341 314.882ZM470.804 282.395C477.939 282.395 483.707 280.199 488.109 275.807C492.663 271.263 494.94 265.129 494.94 257.405C494.94 253.619 494.257 250.211 492.891 247.182C491.677 244.002 489.931 241.351 487.654 239.231C485.529 236.959 482.948 235.293 479.912 234.233C477.028 233.021 473.992 232.415 470.804 232.415C467.616 232.415 464.504 233.021 461.468 234.233C458.584 235.293 456.003 236.959 453.726 239.231C451.449 241.351 449.627 244.002 448.261 247.182C447.047 250.211 446.44 253.619 446.44 257.405C446.44 265.129 448.717 271.263 453.271 275.807C457.977 280.199 463.821 282.395 470.804 282.395Z" fill="#C91C22"/>
<path d="M630.091 317.154C629.788 316.094 629.56 314.352 629.408 311.929C629.257 309.354 629.181 307.309 629.181 305.795C626.145 310.641 621.742 314.2 615.974 316.472C610.357 318.593 604.665 319.653 598.896 319.653C592.065 319.653 585.917 318.517 580.452 316.245C575.139 313.822 570.661 310.641 567.018 306.703C563.374 302.614 560.566 297.919 558.593 292.618C556.771 287.317 555.86 281.638 555.86 275.58V204.245H590.471V268.31C590.471 273.762 591.913 278.382 594.797 282.168C597.833 285.954 602.463 287.848 608.687 287.848C614.456 287.848 619.01 286.106 622.35 282.622C625.841 278.987 627.587 274.292 627.587 268.537V204.245H664.117V296.935C664.117 302.084 664.269 306.552 664.572 310.338C664.876 313.973 665.104 316.245 665.255 317.154H630.091Z" fill="#C91C22"/>
<path d="M763.919 247.182C763.767 245.062 763.236 242.866 762.325 240.594C761.566 238.322 760.276 236.278 758.454 234.46C756.632 232.643 754.279 231.128 751.395 229.916C748.663 228.705 745.247 228.099 741.148 228.099C737.505 228.099 734.317 228.705 731.585 229.916C728.852 231.128 726.5 232.643 724.526 234.46C722.705 236.278 721.262 238.322 720.2 240.594C719.289 242.866 718.758 245.062 718.606 247.182H763.919ZM795.342 284.667C793.976 289.514 791.85 294.133 788.966 298.525C786.082 302.917 782.439 306.779 778.036 310.111C773.634 313.292 768.473 315.791 762.553 317.608C756.784 319.577 750.333 320.562 743.198 320.562C735.456 320.562 728.018 319.198 720.883 316.472C713.748 313.746 707.448 309.808 701.983 304.659C696.519 299.509 692.192 293.224 689.004 285.803C685.816 278.382 684.223 269.9 684.223 260.359C684.223 251.271 685.741 243.093 688.777 235.823C691.964 228.402 696.139 222.117 701.3 216.967C706.613 211.818 712.686 207.88 719.517 205.154C726.348 202.276 733.407 200.837 740.693 200.837C758.302 200.837 772.116 205.911 782.135 216.058C792.306 226.206 797.391 240.443 797.391 258.768C797.391 261.192 797.315 263.539 797.163 265.811C797.012 267.931 796.86 269.143 796.708 269.446H717.923C718.075 272.626 718.833 275.58 720.2 278.306C721.718 280.881 723.615 283.152 725.892 285.121C728.321 287.09 731.054 288.605 734.09 289.665C737.126 290.725 740.314 291.255 743.653 291.255C750.029 291.255 754.962 289.892 758.454 287.166C762.097 284.44 764.754 280.881 766.424 276.488L795.342 284.667Z" fill="#C91C22"/>
<path d="M791.007 183.627C791.007 134.926 771.661 88.2197 737.224 53.783C702.788 19.3463 656.082 3.67681e-06 607.381 0C558.68 -3.67681e-06 511.974 19.3463 477.537 53.783C443.1 88.2197 423.754 134.926 423.754 183.627L492.186 183.627C492.186 153.075 504.322 123.775 525.926 102.172C547.529 80.5684 576.829 68.4318 607.381 68.4318C637.932 68.4318 667.233 80.5684 688.836 102.172C710.439 123.775 722.576 153.075 722.576 183.627H791.007Z" fill="url(#paint0_linear_389_164)"/>
<path d="M674.274 61.6453L702.997 58.891L700.242 87.614L612.685 175.172C608.78 179.077 602.448 179.077 598.543 175.171L586.716 163.345C582.811 159.44 582.811 153.108 586.716 149.203L674.274 61.6453Z" fill="url(#paint1_linear_389_164)"/>
<path d="M333.588 201.273C333.588 194.425 339.14 188.873 345.988 188.873H377.151C383.999 188.873 389.551 194.425 389.551 201.273V305.887C389.551 312.735 383.999 318.286 377.151 318.286H345.988C339.14 318.286 333.588 312.735 333.588 305.887V201.273Z" fill="#C91C22"/>
<path d="M340.584 279.812H382.556V298.891C382.556 305.74 377.005 311.291 370.156 311.291H352.984C346.136 311.291 340.584 305.74 340.584 298.891V279.812Z" fill="white"/>
<path d="M347.579 177.585C347.579 174.161 350.355 171.385 353.779 171.385H369.36C372.784 171.385 375.56 174.161 375.56 177.585V188.873H347.579V177.585Z" fill="#C91C22"/>
<path d="M355.157 263.198L358.364 240.755H347.142C346.34 240.755 345.846 240.541 345.658 240.114C345.472 239.686 345.592 239.098 346.02 238.35L364.776 205.487H367.982L364.776 227.93H375.998C376.799 227.93 377.293 228.144 377.479 228.572C377.667 228.999 377.547 229.587 377.12 230.335L358.364 263.198H355.157Z" fill="white"/>
<path d="M251.972 391.096V519.663H221.069V391.096H171.267V361.957H301.774V391.096H251.972Z" fill="#C91C22"/>
<path d="M370.565 452.488C370.417 449.819 369.824 447.224 368.787 444.703C367.897 442.033 366.415 439.735 364.34 437.807C362.413 435.731 359.894 434.1 356.781 432.914C353.817 431.579 350.259 430.912 346.109 430.912C342.256 430.912 338.847 431.579 335.882 432.914C332.918 434.248 330.398 435.953 328.323 438.03C326.248 440.106 324.618 442.404 323.432 444.925C322.394 447.446 321.801 449.967 321.653 452.488H370.565ZM398.134 488.3C396.8 493.045 394.651 497.568 391.687 501.869C388.87 506.021 385.387 509.654 381.237 512.768C377.087 515.882 372.196 518.329 366.563 520.108C361.079 522.036 355.002 523 348.333 523C340.773 523 333.585 521.74 326.767 519.219C319.949 516.549 313.946 512.694 308.758 507.652C303.57 502.61 299.42 496.456 296.308 489.19C293.343 481.924 291.861 473.693 291.861 464.499C291.861 455.75 293.343 447.817 296.308 440.699C299.272 433.581 303.2 427.575 308.091 422.682C313.131 417.64 318.911 413.784 325.433 411.115C331.954 408.297 338.698 406.889 345.665 406.889C362.71 406.889 375.975 411.93 385.461 422.014C394.947 432.098 399.69 445.963 399.69 463.61C399.69 465.686 399.616 467.688 399.468 469.615C399.32 471.395 399.246 472.433 399.246 472.73H320.986C321.134 476.288 321.95 479.625 323.432 482.739C325.062 485.705 327.063 488.3 329.435 490.524C331.954 492.749 334.845 494.528 338.105 495.863C341.366 497.049 344.849 497.642 348.555 497.642C355.521 497.642 360.931 496.085 364.785 492.971C368.787 489.857 371.677 485.853 373.456 480.96L398.134 488.3Z" fill="#C91C22"/>
<path d="M438.983 483.629C439.28 487.929 441.059 491.785 444.319 495.196C447.58 498.606 452.471 500.312 458.993 500.312C463.884 500.312 467.516 499.274 469.887 497.197C472.259 494.973 473.444 492.378 473.444 489.412C473.444 486.891 472.555 484.741 470.776 482.962C468.998 481.034 465.959 479.625 461.661 478.735L447.21 475.399C436.538 473.026 428.756 468.948 423.865 463.165C418.974 457.233 416.528 450.412 416.528 442.701C416.528 437.807 417.566 433.21 419.641 428.91C421.716 424.461 424.532 420.68 428.089 417.565C431.795 414.303 436.093 411.708 440.984 409.78C446.024 407.852 451.508 406.889 457.437 406.889C465.144 406.889 471.666 408.001 477.002 410.225C482.337 412.301 486.636 414.97 489.897 418.233C493.306 421.495 495.825 424.98 497.456 428.687C499.086 432.246 500.05 435.509 500.346 438.474L475.668 444.035C475.371 442.404 474.852 440.773 474.111 439.142C473.518 437.362 472.481 435.731 470.999 434.248C469.517 432.765 467.664 431.579 465.441 430.689C463.365 429.799 460.772 429.355 457.659 429.355C453.805 429.355 450.47 430.393 447.654 432.469C444.986 434.545 443.652 437.14 443.652 440.254C443.652 442.923 444.542 445.073 446.32 446.705C448.247 448.336 450.693 449.448 453.657 450.041L469.22 453.378C480.04 455.602 488.118 459.754 493.454 465.834C498.938 471.914 501.68 478.958 501.68 486.965C501.68 491.414 500.791 495.789 499.012 500.089C497.382 504.39 494.788 508.245 491.231 511.656C487.673 515.066 483.227 517.81 477.891 519.886C472.555 521.962 466.33 523 459.215 523C450.915 523 443.949 521.814 438.316 519.441C432.684 517.068 428.089 514.177 424.532 510.766C420.975 507.355 418.307 503.722 416.528 499.867C414.898 495.863 413.934 492.304 413.638 489.19L438.983 483.629Z" fill="#C91C22"/>
<path d="M561.917 410.225H583.928V436.473H561.917V482.294C561.917 487.04 562.955 490.376 565.03 492.304C567.253 494.083 570.514 494.973 574.812 494.973C576.591 494.973 578.369 494.899 580.148 494.751C581.927 494.602 583.187 494.38 583.928 494.083V518.551C582.594 519.144 580.519 519.738 577.702 520.331C575.035 520.924 571.551 521.22 567.253 521.22C556.581 521.22 548.133 518.255 541.908 512.323C535.682 506.391 532.57 498.087 532.57 487.41V436.473H512.783V410.225H518.341C524.121 410.225 528.346 408.594 531.014 405.332C533.83 401.921 535.238 397.769 535.238 392.875V377.527H561.917V410.225Z" fill="#C91C22"/>
<path d="M678.438 452.488C678.29 449.819 677.697 447.224 676.659 444.703C675.77 442.033 674.288 439.735 672.213 437.807C670.286 435.731 667.766 434.1 664.654 432.914C661.689 431.579 658.132 430.912 653.982 430.912C650.128 430.912 646.719 431.579 643.755 432.914C640.79 434.248 638.271 435.953 636.196 438.03C634.121 440.106 632.49 442.404 631.304 444.925C630.267 447.446 629.674 449.967 629.526 452.488H678.438ZM706.007 488.3C704.673 493.045 702.524 497.568 699.559 501.869C696.743 506.021 693.26 509.654 689.11 512.768C684.96 515.882 680.068 518.329 674.436 520.108C668.952 522.036 662.875 523 656.205 523C648.646 523 641.457 521.74 634.639 519.219C627.821 516.549 621.818 512.694 616.631 507.652C611.443 502.61 607.293 496.456 604.18 489.19C601.216 481.924 599.734 473.693 599.734 464.499C599.734 455.75 601.216 447.817 604.18 440.699C607.145 433.581 611.073 427.575 615.964 422.682C621.003 417.64 626.784 413.784 633.305 411.115C639.827 408.297 646.571 406.889 653.537 406.889C670.582 406.889 683.848 411.93 693.334 422.014C702.82 432.098 707.563 445.963 707.563 463.61C707.563 465.686 707.489 467.688 707.341 469.615C707.193 471.395 707.118 472.433 707.118 472.73H628.859C629.007 476.288 629.822 479.625 631.304 482.739C632.935 485.705 634.936 488.3 637.307 490.524C639.827 492.749 642.717 494.528 645.978 495.863C649.239 497.049 652.722 497.642 656.428 497.642C663.394 497.642 668.804 496.085 672.658 492.971C676.659 489.857 679.55 485.853 681.328 480.96L706.007 488.3Z" fill="#C91C22"/>
<path d="M797.547 439.587C794.583 438.993 791.618 438.697 788.654 438.697C784.8 438.697 781.169 439.216 777.76 440.254C774.351 441.292 771.386 442.997 768.867 445.37C766.347 447.743 764.272 450.931 762.641 454.935C761.159 458.79 760.418 463.684 760.418 469.615V519.663H730.849V410.225H759.529V426.463C761.159 422.904 763.234 420.012 765.754 417.788C768.422 415.415 771.164 413.636 773.98 412.449C776.945 411.263 779.835 410.448 782.651 410.003C785.615 409.558 788.283 409.335 790.655 409.335C791.841 409.335 792.952 409.41 793.99 409.558C795.176 409.558 796.361 409.632 797.547 409.78V439.587Z" fill="#C91C22"/>
<defs>
<linearGradient id="paint0_linear_389_164" x1="458.976" y1="304.551" x2="710.662" y2="240.078" gradientUnits="userSpaceOnUse">
<stop stop-color="#DC2930"/>
<stop offset="0.527485" stop-color="#FD7E83"/>
<stop offset="1" stop-color="#FFD1D2"/>
</linearGradient>
<linearGradient id="paint1_linear_389_164" x1="705.123" y1="58.1484" x2="695.3" y2="165.168" gradientUnits="userSpaceOnUse">
<stop stop-color="#DC2930"/>
<stop offset="0.527485" stop-color="#FD7E83"/>
<stop offset="1" stop-color="#FFD1D2"/>
</linearGradient>
</defs>
</svg>
