<svg width="816" height="210" viewBox="0 0 816 210" fill="none" xmlns="http://www.w3.org/2000/svg">
<path d="M0 181.352V89.2501H59.5031V108.736H20.5722V128.221H54.8157V146.928H20.7024V181.352H0Z" fill="#C91C22"/>
<path d="M64.2168 163.555C64.2168 160.698 64.6943 158.143 65.6491 155.891C66.6907 153.639 68.0796 151.734 69.8156 150.175C71.5516 148.53 73.5481 147.231 75.805 146.278C78.1486 145.239 80.6659 144.503 83.3568 144.07L98.5906 141.732C100.327 141.472 101.542 140.952 102.236 140.173C102.931 139.393 103.278 138.441 103.278 137.315C103.278 135.409 102.453 133.764 100.804 132.378C99.2416 130.993 96.898 130.3 93.7731 130.3C90.301 130.3 87.6101 131.296 85.7004 133.288C83.8776 135.193 82.8794 137.358 82.7058 139.783L65.5189 136.276C65.6925 133.937 66.3869 131.512 67.6021 129.001C68.8174 126.489 70.5534 124.194 72.8103 122.116C75.154 120.037 78.0618 118.305 81.5339 116.92C85.006 115.534 89.1291 114.841 93.9033 114.841C99.1114 114.841 103.538 115.534 107.184 116.92C110.83 118.219 113.781 120.037 116.038 122.376C118.382 124.627 120.031 127.269 120.986 130.3C122.027 133.331 122.548 136.492 122.548 139.783V171.35C122.548 173.861 122.635 176.07 122.808 177.975C123.069 179.88 123.243 181.006 123.329 181.352H105.491C105.405 181.093 105.274 180.4 105.101 179.274C104.927 178.061 104.84 176.329 104.84 174.078C103.104 176.849 100.717 179.057 97.6792 180.703C94.6411 182.348 90.952 183.171 86.6119 183.171C83.053 183.171 79.8847 182.608 77.107 181.482C74.3293 180.443 71.9857 179.014 70.076 177.195C68.1664 175.377 66.6907 173.298 65.6491 170.96C64.6943 168.622 64.2168 166.154 64.2168 163.555ZM91.4294 168.882C92.9051 168.882 94.3373 168.708 95.7261 168.362C97.2018 167.929 98.4604 167.236 99.502 166.283C100.63 165.244 101.542 163.902 102.236 162.256C102.931 160.611 103.278 158.532 103.278 156.021V153.163L91.0388 155.112C88.9555 155.458 87.2195 156.194 85.8306 157.32C84.4418 158.359 83.7474 160.005 83.7474 162.256C83.7474 163.988 84.3116 165.547 85.44 166.933C86.6553 168.232 88.6517 168.882 91.4294 168.882Z" fill="#C91C22"/>
<path d="M162.262 116.79H174.892V134.067H162.262V158.229C162.262 160.914 162.913 162.733 164.215 163.685C165.517 164.551 167.253 164.984 169.423 164.984C170.465 164.984 171.42 164.941 172.288 164.855C173.243 164.681 174.024 164.508 174.632 164.335V180.703C174.198 180.876 173.156 181.222 171.507 181.742C169.857 182.262 167.47 182.522 164.345 182.522C157.575 182.522 152.28 180.703 148.461 177.066C144.641 173.342 142.732 168.232 142.732 161.737V134.067H131.274V116.79H134.529C137.914 116.79 140.431 115.794 142.081 113.802C143.73 111.81 144.555 109.299 144.555 106.268V97.9537H162.262V116.79Z" fill="#C91C22"/>
<path d="M252.936 180.053C253.63 183.171 255.193 185.726 257.623 187.718C260.054 189.796 263.135 190.835 266.868 190.835C271.815 190.835 275.722 189.536 278.586 186.938C281.45 184.427 282.883 180.227 282.883 174.338V171.35C281.667 173.082 279.628 174.727 276.763 176.286C273.985 177.845 270.253 178.624 265.566 178.624C261.226 178.624 257.233 177.845 253.587 176.286C249.941 174.641 246.773 172.432 244.082 169.661C241.391 166.803 239.265 163.469 237.702 159.658C236.226 155.848 235.489 151.691 235.489 147.188C235.489 142.944 236.226 138.917 237.702 135.106C239.178 131.296 241.218 127.962 243.822 125.104C246.513 122.159 249.681 119.864 253.327 118.219C257.059 116.487 261.139 115.621 265.566 115.621C268.17 115.621 270.47 115.88 272.466 116.4C274.55 116.92 276.329 117.569 277.805 118.349C279.28 119.128 280.496 119.994 281.45 120.947C282.405 121.899 283.1 122.809 283.534 123.675V116.79H302.413V173.298C302.413 177.975 301.719 182.392 300.33 186.549C299.028 190.706 296.945 194.386 294.08 197.59C291.303 200.795 287.744 203.306 283.404 205.125C279.063 207.03 273.855 207.983 267.779 207.983C263.092 207.983 258.838 207.333 255.019 206.034C251.287 204.735 248.032 203.003 245.254 200.838C242.563 198.673 240.35 196.205 238.613 193.434C236.964 190.662 235.923 187.848 235.489 184.99L252.936 180.053ZM269.211 161.477C273.291 161.477 276.59 160.221 279.107 157.71C281.711 155.112 283.013 151.604 283.013 147.188C283.013 145.022 282.622 143.074 281.841 141.342C281.147 139.523 280.148 138.008 278.846 136.795C277.631 135.496 276.156 134.543 274.42 133.937C272.77 133.244 271.034 132.898 269.211 132.898C267.388 132.898 265.609 133.244 263.873 133.937C262.224 134.543 260.748 135.496 259.446 136.795C258.144 138.008 257.102 139.523 256.321 141.342C255.627 143.074 255.28 145.022 255.28 147.188C255.28 151.604 256.582 155.112 259.186 157.71C261.877 160.221 265.218 161.477 269.211 161.477Z" fill="#C91C22"/>
<path d="M360.294 181.352C360.12 180.746 359.99 179.75 359.903 178.365C359.817 176.892 359.773 175.723 359.773 174.857C358.037 177.628 355.52 179.664 352.221 180.963C349.01 182.175 345.754 182.781 342.456 182.781C338.55 182.781 335.034 182.132 331.909 180.833C328.871 179.447 326.311 177.628 324.228 175.377C322.144 173.039 320.538 170.354 319.41 167.323C318.368 164.292 317.848 161.044 317.848 157.58V116.79H337.638V153.423C337.638 156.541 338.463 159.182 340.112 161.347C341.848 163.512 344.496 164.595 348.055 164.595C351.353 164.595 353.957 163.599 355.867 161.607C357.863 159.528 358.862 156.844 358.862 153.553V116.79H379.75V169.791C379.75 172.735 379.837 175.29 380.01 177.455C380.184 179.534 380.314 180.833 380.401 181.352H360.294Z" fill="#C91C22"/>
<path d="M436.818 141.342C436.731 140.129 436.427 138.874 435.907 137.575C435.473 136.276 434.735 135.106 433.693 134.067C432.652 133.028 431.306 132.162 429.657 131.469C428.094 130.776 426.141 130.43 423.798 130.43C421.714 130.43 419.892 130.776 418.329 131.469C416.767 132.162 415.421 133.028 414.293 134.067C413.251 135.106 412.427 136.276 411.819 137.575C411.298 138.874 410.994 140.129 410.907 141.342H436.818ZM454.786 162.776C454.005 165.547 452.79 168.189 451.14 170.7C449.491 173.212 447.408 175.42 444.891 177.325C442.373 179.144 439.422 180.573 436.037 181.612C432.738 182.738 429.049 183.301 424.97 183.301C420.543 183.301 416.289 182.522 412.21 180.963C408.13 179.404 404.528 177.152 401.403 174.208C398.278 171.263 395.804 167.669 393.981 163.426C392.158 159.182 391.247 154.332 391.247 148.876C391.247 143.68 392.115 139.004 393.851 134.847C395.674 130.603 398.061 127.009 401.012 124.064C404.05 121.12 407.522 118.868 411.428 117.309C415.334 115.664 419.371 114.841 423.537 114.841C433.606 114.841 441.505 117.742 447.234 123.545C453.05 129.347 455.958 137.488 455.958 147.967C455.958 149.353 455.915 150.695 455.828 151.994C455.741 153.206 455.654 153.899 455.567 154.072H410.517C410.604 155.891 411.038 157.58 411.819 159.139C412.687 160.611 413.772 161.91 415.074 163.036C416.463 164.162 418.025 165.028 419.761 165.634C421.497 166.24 423.32 166.543 425.23 166.543C428.876 166.543 431.697 165.764 433.693 164.205C435.776 162.646 437.295 160.611 438.25 158.099L454.786 162.776Z" fill="#C91C22"/>
<path d="M808.544 105C808.544 77.1523 797.481 50.4451 777.79 30.7538C758.099 11.0625 731.392 2.10245e-06 703.544 0C675.696 -2.10244e-06 648.989 11.0625 629.298 30.7538C609.606 50.4451 598.544 77.1523 598.544 105L637.674 105C637.674 87.5302 644.614 70.776 656.967 58.423C669.32 46.07 686.074 39.1301 703.544 39.1301C721.014 39.1301 737.768 46.07 750.121 58.423C762.474 70.776 769.414 87.5302 769.414 105H808.544Z" fill="url(#paint0_linear_389_231)"/>
<path d="M741.794 35.2495L758.219 33.6746L756.644 50.0988L709.605 97.1374C705.7 101.043 699.368 101.043 695.463 97.1374L694.756 96.4303C690.85 92.5251 690.85 86.1934 694.756 82.2882L741.794 35.2495Z" fill="url(#paint1_linear_389_231)"/>
<path d="M190.75 115.09C190.75 111.174 193.924 108 197.84 108H215.659C219.575 108 222.75 111.174 222.75 115.09V174.91C222.75 178.826 219.575 182 215.659 182H197.84C193.924 182 190.75 178.826 190.75 174.91V115.09Z" fill="#C91C22"/>
<path d="M194.75 160H218.75V170.91C218.75 174.826 215.576 178 211.66 178H201.841C197.925 178 194.75 174.826 194.75 170.91V160Z" fill="white"/>
<path d="M198.75 101.545C198.75 99.5872 200.337 98 202.295 98H211.205C213.163 98 214.75 99.5872 214.75 101.545V108H198.75V101.545Z" fill="#C91C22"/>
<path d="M203.084 150.5L204.917 137.667H198.5C198.042 137.667 197.759 137.544 197.651 137.3C197.545 137.056 197.614 136.719 197.859 136.292L208.584 117.5H210.417L208.584 130.333H215C215.459 130.333 215.741 130.456 215.847 130.7C215.955 130.944 215.886 131.281 215.642 131.708L204.917 150.5H203.084Z" fill="white"/>
<path d="M503.421 105.886V179.403H485.75V105.886H457.273V89.224H531.898V105.886H503.421Z" fill="#C91C22"/>
<path d="M571.234 140.991C571.149 139.465 570.81 137.981 570.217 136.539C569.709 135.013 568.861 133.699 567.674 132.596C566.573 131.409 565.132 130.476 563.352 129.798C561.657 129.035 559.623 128.653 557.25 128.653C555.046 128.653 553.097 129.035 551.402 129.798C549.707 130.561 548.266 131.536 547.079 132.723C545.893 133.911 544.961 135.225 544.283 136.666C543.689 138.108 543.35 139.549 543.266 140.991H571.234ZM586.998 161.469C586.235 164.182 585.007 166.768 583.311 169.227C581.701 171.602 579.709 173.679 577.336 175.46C574.963 177.24 572.166 178.64 568.946 179.657C565.81 180.759 562.335 181.311 558.521 181.311C554.199 181.311 550.088 180.59 546.189 179.148C542.291 177.622 538.858 175.417 535.892 172.534C532.926 169.651 530.553 166.132 528.773 161.977C527.078 157.823 526.23 153.116 526.23 147.859C526.23 142.856 527.078 138.32 528.773 134.25C530.468 130.18 532.714 126.745 535.511 123.947C538.392 121.064 541.698 118.86 545.427 117.333C549.156 115.722 553.012 114.917 556.996 114.917C566.742 114.917 574.328 117.8 579.752 123.566C585.176 129.332 587.888 137.26 587.888 147.35C587.888 148.538 587.846 149.682 587.761 150.785C587.676 151.802 587.634 152.396 587.634 152.565H542.884C542.969 154.6 543.435 156.508 544.283 158.289C545.215 159.985 546.359 161.469 547.715 162.741C549.156 164.013 550.809 165.03 552.673 165.793C554.538 166.472 556.529 166.811 558.648 166.811C562.632 166.811 565.725 165.92 567.929 164.14C570.217 162.359 571.87 160.07 572.887 157.271L586.998 161.469Z" fill="#C91C22"/>
<path d="M610.356 158.798C610.526 161.257 611.543 163.461 613.408 165.412C615.272 167.362 618.069 168.337 621.798 168.337C624.595 168.337 626.671 167.743 628.028 166.556C629.384 165.284 630.062 163.801 630.062 162.105C630.062 160.663 629.553 159.434 628.536 158.416C627.519 157.314 625.782 156.508 623.324 155.999L615.06 154.092C608.958 152.735 604.508 150.403 601.712 147.096C598.915 143.704 597.516 139.804 597.516 135.394C597.516 132.596 598.11 129.968 599.296 127.509C600.483 124.965 602.093 122.803 604.127 121.022C606.246 119.156 608.704 117.672 611.501 116.57C614.382 115.468 617.518 114.917 620.908 114.917C625.315 114.917 629.045 115.553 632.096 116.825C635.147 118.012 637.605 119.538 639.469 121.403C641.419 123.269 642.859 125.262 643.792 127.381C644.724 129.416 645.275 131.282 645.444 132.978L631.333 136.158C631.163 135.225 630.867 134.292 630.443 133.359C630.104 132.342 629.511 131.409 628.663 130.561C627.816 129.713 626.756 129.035 625.485 128.526C624.298 128.017 622.815 127.763 621.035 127.763C618.832 127.763 616.925 128.357 615.314 129.544C613.789 130.731 613.026 132.215 613.026 133.995C613.026 135.522 613.535 136.751 614.552 137.684C615.653 138.617 617.052 139.253 618.747 139.592L627.646 141.5C633.833 142.772 638.452 145.146 641.503 148.622C644.639 152.099 646.207 156.127 646.207 160.706C646.207 163.249 645.699 165.751 644.682 168.21C643.749 170.669 642.266 172.874 640.232 174.824C638.198 176.774 635.655 178.343 632.604 179.53C629.553 180.717 625.993 181.311 621.925 181.311C617.179 181.311 613.196 180.632 609.975 179.276C606.754 177.919 604.127 176.265 602.093 174.315C600.059 172.365 598.533 170.287 597.516 168.083C596.584 165.793 596.033 163.758 595.864 161.977L610.356 158.798Z" fill="#C91C22"/>
<path d="M680.651 116.825H693.237V131.833H680.651V158.035C680.651 160.748 681.245 162.656 682.431 163.758C683.703 164.776 685.567 165.284 688.025 165.284C689.042 165.284 690.059 165.242 691.076 165.157C692.093 165.072 692.813 164.945 693.237 164.776V178.767C692.474 179.106 691.288 179.445 689.678 179.784C688.152 180.123 686.16 180.293 683.703 180.293C677.6 180.293 672.769 178.597 669.21 175.205C665.65 171.814 663.87 167.065 663.87 160.96V131.833H652.556V116.825H655.734C659.039 116.825 661.455 115.892 662.98 114.026C664.591 112.076 665.396 109.702 665.396 106.904V98.1274H680.651V116.825Z" fill="#C91C22"/>
<path d="M747.279 140.991C747.195 139.465 746.856 137.981 746.262 136.539C745.754 135.013 744.906 133.699 743.72 132.596C742.618 131.409 741.177 130.476 739.397 129.798C737.702 129.035 735.668 128.653 733.295 128.653C731.092 128.653 729.142 129.035 727.447 129.798C725.752 130.561 724.311 131.536 723.125 132.723C721.938 133.911 721.006 135.225 720.328 136.666C719.735 138.108 719.396 139.549 719.311 140.991H747.279ZM763.044 161.469C762.281 164.182 761.052 166.768 759.357 169.227C757.746 171.602 755.755 173.679 753.382 175.46C751.009 177.24 748.212 178.64 744.991 179.657C741.855 180.759 738.38 181.311 734.566 181.311C730.244 181.311 726.133 180.59 722.235 179.148C718.336 177.622 714.904 175.417 711.937 172.534C708.971 169.651 706.598 166.132 704.818 161.977C703.123 157.823 702.275 153.116 702.275 147.859C702.275 142.856 703.123 138.32 704.818 134.25C706.513 130.18 708.759 126.745 711.556 123.947C714.438 121.064 717.743 118.86 721.472 117.333C725.201 115.722 729.057 114.917 733.041 114.917C742.788 114.917 750.373 117.8 755.797 123.566C761.221 129.332 763.934 137.26 763.934 147.35C763.934 148.538 763.891 149.682 763.806 150.785C763.722 151.802 763.679 152.396 763.679 152.565H718.929C719.014 154.6 719.48 156.508 720.328 158.289C721.26 159.985 722.404 161.469 723.76 162.741C725.201 164.013 726.854 165.03 728.718 165.793C730.583 166.472 732.575 166.811 734.694 166.811C738.677 166.811 741.77 165.92 743.974 164.14C746.262 162.359 747.915 160.07 748.932 157.271L763.044 161.469Z" fill="#C91C22"/>
<path d="M815.387 133.614C813.692 133.275 811.997 133.105 810.302 133.105C808.099 133.105 806.022 133.402 804.073 133.995C802.123 134.589 800.428 135.564 798.988 136.921C797.547 138.277 796.36 140.101 795.428 142.39C794.58 144.595 794.157 147.393 794.157 150.785V179.403H777.248V116.825H793.648V126.11C794.58 124.074 795.767 122.421 797.208 121.149C798.733 119.792 800.301 118.775 801.912 118.096C803.607 117.418 805.259 116.952 806.87 116.697C808.565 116.443 810.09 116.316 811.446 116.316C812.124 116.316 812.76 116.358 813.353 116.443C814.031 116.443 814.709 116.485 815.387 116.57V133.614Z" fill="#C91C22"/>
<defs>
<linearGradient id="paint0_linear_389_231" x1="618.685" y1="174.146" x2="762.601" y2="137.28" gradientUnits="userSpaceOnUse">
<stop stop-color="#DC2930"/>
<stop offset="0.527485" stop-color="#FD7E83"/>
<stop offset="1" stop-color="#FFD1D2"/>
</linearGradient>
<linearGradient id="paint1_linear_389_231" x1="759.435" y1="33.25" x2="753.818" y2="94.4452" gradientUnits="userSpaceOnUse">
<stop stop-color="#DC2930"/>
<stop offset="0.527485" stop-color="#FD7E83"/>
<stop offset="1" stop-color="#FFD1D2"/>
</linearGradient>
</defs>
</svg>
