<svg width="36" height="34" viewBox="0 0 36 34" fill="none" xmlns="http://www.w3.org/2000/svg">
<path d="M16 24.5834L25.4167 15.1667L23.0417 12.7917L16 19.8334L12.4583 16.2917L10.0833 18.6667L16 24.5834ZM17.75 33.6667C15.6667 33.6667 13.7156 33.2712 11.8967 32.4801C10.0767 31.6879 8.49333 30.6179 7.14667 29.2701C5.79889 27.9234 4.72889 26.3401 3.93667 24.5201C3.14556 22.7012 2.75 20.7501 2.75 18.6667C2.75 16.5834 3.14556 14.6318 3.93667 12.8117C4.72889 10.9929 5.79889 9.40953 7.14667 8.06175C8.49333 6.71508 10.0767 5.64619 11.8967 4.85508C13.7156 4.06286 15.6667 3.66675 17.75 3.66675C19.8333 3.66675 21.785 4.06286 23.605 4.85508C25.4239 5.64619 27.0072 6.71508 28.355 8.06175C29.7017 9.40953 30.7711 10.9929 31.5633 12.8117C32.3544 14.6318 32.75 16.5834 32.75 18.6667C32.75 20.7501 32.3544 22.7012 31.5633 24.5201C30.7711 26.3401 29.7017 27.9234 28.355 29.2701C27.0072 30.6179 25.4239 31.6879 23.605 32.4801C21.785 33.2712 19.8333 33.6667 17.75 33.6667ZM7.08333 0.916748L9.41667 3.25008L2.33333 10.3334L0 8.00008L7.08333 0.916748ZM28.4167 0.916748L35.5 8.00008L33.1667 10.3334L26.0833 3.25008L28.4167 0.916748ZM17.75 30.3334C21 30.3334 23.7567 29.2012 26.02 26.9367C28.2844 24.6734 29.4167 21.9167 29.4167 18.6667C29.4167 15.4167 28.2844 12.6595 26.02 10.3951C23.7567 8.13175 21 7.00008 17.75 7.00008C14.5 7.00008 11.7433 8.13175 9.48 10.3951C7.21556 12.6595 6.08333 15.4167 6.08333 18.6667C6.08333 21.9167 7.21556 24.6734 9.48 26.9367C11.7433 29.2012 14.5 30.3334 17.75 30.3334Z" fill="#C91C22"/>
</svg>
