<svg width="71" height="79" viewBox="0 0 71 79" fill="none" xmlns="http://www.w3.org/2000/svg">
<path d="M29.0807 75.9141C29.0807 77.6186 27.6958 79 25.987 79H12.3748C5.55112 79 0 73.4628 0 66.6562V12.3438C0 5.53721 5.55112 0 12.3748 0H50.4102C57.2332 0 62.785 5.53721 62.785 12.3438V41.8145C62.785 43.519 61.3994 44.9004 59.6913 44.9004C57.9825 44.9004 56.5976 43.519 56.5976 41.8145V12.3438C56.5976 8.94078 53.8217 6.17188 50.4102 6.17188H12.3748C8.96324 6.17188 6.18738 8.94078 6.18738 12.3438V66.6562C6.18738 70.0592 8.96324 72.8281 12.3748 72.8281H25.987C27.6958 72.8281 29.0807 74.2096 29.0807 75.9141ZM47.3165 18.5156H15.4515C13.7427 18.5156 12.3578 19.8971 12.3578 21.6016C12.3578 23.3061 13.7427 24.6875 15.4515 24.6875H47.3165C49.0247 24.6875 50.4102 23.3061 50.4102 21.6016C50.4102 19.8971 49.0247 18.5156 47.3165 18.5156ZM50.4102 33.9453C50.4102 32.2408 49.0247 30.8594 47.3165 30.8594H15.4515C13.7427 30.8594 12.3578 32.2408 12.3578 33.9453C12.3578 35.6498 13.7427 37.0312 15.4515 37.0312H47.3165C49.0247 37.0312 50.4102 35.6498 50.4102 33.9453ZM15.4515 43.2031C13.7427 43.2031 12.3578 44.5846 12.3578 46.2891C12.3578 47.9936 13.7427 49.375 15.4515 49.375H31.7103C33.4191 49.375 34.804 47.9936 34.804 46.2891C34.804 44.5846 33.4191 43.2031 31.7103 43.2031H15.4515ZM70.4376 65.807C70.3288 65.9619 69.956 66.4881 69.7246 66.7792C68.6883 68.0793 66.2629 71.1224 62.8883 73.8088C58.5613 77.2533 54.1087 79 49.6537 79C45.1987 79 40.7461 77.2533 36.4191 73.8088C33.0445 71.1224 30.6191 68.0787 29.5834 66.7792C29.3514 66.4881 28.9786 65.9613 28.8698 65.807C28.1199 64.7426 28.1199 63.3232 28.8698 62.2588C28.9786 62.1045 29.3514 61.5777 29.5834 61.2866C30.6191 59.9871 33.0445 56.944 36.4191 54.2577C40.7461 50.8131 45.1987 49.0664 49.6537 49.0664C54.1087 49.0664 58.5613 50.8131 62.8883 54.2577C66.2629 56.944 68.6883 59.9877 69.724 61.2872C69.956 61.5783 70.3288 62.1051 70.4376 62.2594C71.1875 63.3238 71.1875 64.7426 70.4376 65.807ZM63.9844 64.0332C59.0653 58.1958 54.2489 55.2383 49.6537 55.2383C45.0591 55.2383 40.2421 58.1952 35.323 64.0332C40.2421 69.8706 45.0585 72.8281 49.6537 72.8281C54.2489 72.8281 59.0653 69.8712 63.9844 64.0332V64.0332ZM49.8084 58.1699C46.5618 58.1699 43.9304 60.7948 43.9304 64.0332C43.9304 67.2716 46.5618 69.8965 49.8084 69.8965C53.0549 69.8965 55.6864 67.2716 55.6864 64.0332C55.6864 60.7948 53.0549 58.1699 49.8084 58.1699Z" fill="#392424"/>
</svg>
