<svg width="27" height="38" viewBox="0 0 27 38" fill="none" xmlns="http://www.w3.org/2000/svg">
<path d="M13.3333 37.3334C12.4167 37.3334 11.6322 37.0073 10.98 36.3551C10.3267 35.7018 10 34.9167 10 34.0001C10 33.0834 10.3267 32.2984 10.98 31.6451C11.6322 30.9929 12.4167 30.6667 13.3333 30.6667C14.25 30.6667 15.035 30.9929 15.6883 31.6451C16.3406 32.2984 16.6667 33.0834 16.6667 34.0001C16.6667 34.9167 16.3406 35.7018 15.6883 36.3551C15.035 37.0073 14.25 37.3334 13.3333 37.3334ZM3.33333 7.33342C2.41667 7.33342 1.63222 7.00675 0.98 6.35342C0.326666 5.70119 0 4.91675 0 4.00008C0 3.08341 0.326666 2.29841 0.98 1.64508C1.63222 0.992859 2.41667 0.666748 3.33333 0.666748C4.25 0.666748 5.03444 0.992859 5.68667 1.64508C6.34 2.29841 6.66667 3.08341 6.66667 4.00008C6.66667 4.91675 6.34 5.70119 5.68667 6.35342C5.03444 7.00675 4.25 7.33342 3.33333 7.33342ZM3.33333 17.3334C2.41667 17.3334 1.63222 17.0067 0.98 16.3534C0.326666 15.7012 0 14.9167 0 14.0001C0 13.0834 0.326666 12.2984 0.98 11.6451C1.63222 10.9929 2.41667 10.6667 3.33333 10.6667C4.25 10.6667 5.03444 10.9929 5.68667 11.6451C6.34 12.2984 6.66667 13.0834 6.66667 14.0001C6.66667 14.9167 6.34 15.7012 5.68667 16.3534C5.03444 17.0067 4.25 17.3334 3.33333 17.3334ZM3.33333 27.3334C2.41667 27.3334 1.63222 27.0073 0.98 26.3551C0.326666 25.7017 0 24.9167 0 24.0001C0 23.0834 0.326666 22.2984 0.98 21.6451C1.63222 20.9929 2.41667 20.6667 3.33333 20.6667C4.25 20.6667 5.03444 20.9929 5.68667 21.6451C6.34 22.2984 6.66667 23.0834 6.66667 24.0001C6.66667 24.9167 6.34 25.7017 5.68667 26.3551C5.03444 27.0073 4.25 27.3334 3.33333 27.3334ZM23.3333 7.33342C22.4167 7.33342 21.6317 7.00675 20.9783 6.35342C20.3261 5.70119 20 4.91675 20 4.00008C20 3.08341 20.3261 2.29841 20.9783 1.64508C21.6317 0.992859 22.4167 0.666748 23.3333 0.666748C24.25 0.666748 25.035 0.992859 25.6883 1.64508C26.3406 2.29841 26.6667 3.08341 26.6667 4.00008C26.6667 4.91675 26.3406 5.70119 25.6883 6.35342C25.035 7.00675 24.25 7.33342 23.3333 7.33342ZM13.3333 27.3334C12.4167 27.3334 11.6322 27.0073 10.98 26.3551C10.3267 25.7017 10 24.9167 10 24.0001C10 23.0834 10.3267 22.2984 10.98 21.6451C11.6322 20.9929 12.4167 20.6667 13.3333 20.6667C14.25 20.6667 15.035 20.9929 15.6883 21.6451C16.3406 22.2984 16.6667 23.0834 16.6667 24.0001C16.6667 24.9167 16.3406 25.7017 15.6883 26.3551C15.035 27.0073 14.25 27.3334 13.3333 27.3334ZM23.3333 27.3334C22.4167 27.3334 21.6317 27.0073 20.9783 26.3551C20.3261 25.7017 20 24.9167 20 24.0001C20 23.0834 20.3261 22.2984 20.9783 21.6451C21.6317 20.9929 22.4167 20.6667 23.3333 20.6667C24.25 20.6667 25.035 20.9929 25.6883 21.6451C26.3406 22.2984 26.6667 23.0834 26.6667 24.0001C26.6667 24.9167 26.3406 25.7017 25.6883 26.3551C25.035 27.0073 24.25 27.3334 23.3333 27.3334ZM23.3333 17.3334C22.4167 17.3334 21.6317 17.0067 20.9783 16.3534C20.3261 15.7012 20 14.9167 20 14.0001C20 13.0834 20.3261 12.2984 20.9783 11.6451C21.6317 10.9929 22.4167 10.6667 23.3333 10.6667C24.25 10.6667 25.035 10.9929 25.6883 11.6451C26.3406 12.2984 26.6667 13.0834 26.6667 14.0001C26.6667 14.9167 26.3406 15.7012 25.6883 16.3534C25.035 17.0067 24.25 17.3334 23.3333 17.3334ZM13.3333 17.3334C12.4167 17.3334 11.6322 17.0067 10.98 16.3534C10.3267 15.7012 10 14.9167 10 14.0001C10 13.0834 10.3267 12.2984 10.98 11.6451C11.6322 10.9929 12.4167 10.6667 13.3333 10.6667C14.25 10.6667 15.035 10.9929 15.6883 11.6451C16.3406 12.2984 16.6667 13.0834 16.6667 14.0001C16.6667 14.9167 16.3406 15.7012 15.6883 16.3534C15.035 17.0067 14.25 17.3334 13.3333 17.3334ZM13.3333 7.33342C12.4167 7.33342 11.6322 7.00675 10.98 6.35342C10.3267 5.70119 10 4.91675 10 4.00008C10 3.08341 10.3267 2.29841 10.98 1.64508C11.6322 0.992859 12.4167 0.666748 13.3333 0.666748C14.25 0.666748 15.035 0.992859 15.6883 1.64508C16.3406 2.29841 16.6667 3.08341 16.6667 4.00008C16.6667 4.91675 16.3406 5.70119 15.6883 6.35342C15.035 7.00675 14.25 7.33342 13.3333 7.33342Z" fill="#C91C22"/>
</svg>
