<svg width="18" height="14" viewBox="0 0 18 14" fill="none" xmlns="http://www.w3.org/2000/svg">
<path fill-rule="evenodd" clip-rule="evenodd" d="M18 1C18 0.447715 17.5523 0 17 0H1C0.447716 0 0 0.447715 0 1C0 1.55228 0.447716 2 1 2H17C17.5523 2 18 1.55228 18 1ZM18 7C18 6.44772 17.5523 6 17 6H1C0.447716 6 0 6.44772 0 7C0 7.55228 0.447716 8 1 8H17C17.5523 8 18 7.55228 18 7ZM9 13C9 12.4477 8.55229 12 8 12H1C0.447716 12 0 12.4477 0 13C0 13.5523 0.447716 14 1 14H8C8.55229 14 9 13.5523 9 13Z" fill="#414042"/>
</svg>
