<svg width="185" height="30" viewBox="0 0 185 30" fill="none" xmlns="http://www.w3.org/2000/svg">
<path d="M0.31 23V1.73H14.02V6.23H5.05V10.73H12.94V15.05H5.08V23H0.31ZM15.1061 18.89C15.1061 18.23 15.2161 17.64 15.4361 17.12C15.6761 16.6 15.9961 16.16 16.3961 15.8C16.7961 15.42 17.2561 15.12 17.7761 14.9C18.3161 14.66 18.8961 14.49 19.5161 14.39L23.0261 13.85C23.4261 13.79 23.7061 13.67 23.8661 13.49C24.0261 13.31 24.1061 13.09 24.1061 12.83C24.1061 12.39 23.9161 12.01 23.5361 11.69C23.1761 11.37 22.6361 11.21 21.9161 11.21C21.1161 11.21 20.4961 11.44 20.0561 11.9C19.6361 12.34 19.4061 12.84 19.3661 13.4L15.4061 12.59C15.4461 12.05 15.6061 11.49 15.8861 10.91C16.1661 10.33 16.5661 9.8 17.0861 9.32C17.6261 8.84 18.2961 8.44 19.0961 8.12C19.8961 7.8 20.8461 7.64 21.9461 7.64C23.1461 7.64 24.1661 7.8 25.0061 8.12C25.8461 8.42 26.5261 8.84 27.0461 9.38C27.5861 9.9 27.9661 10.51 28.1861 11.21C28.4261 11.91 28.5461 12.64 28.5461 13.4V20.69C28.5461 21.27 28.5661 21.78 28.6061 22.22C28.6661 22.66 28.7061 22.92 28.7261 23H24.6161C24.5961 22.94 24.5661 22.78 24.5261 22.52C24.4861 22.24 24.4661 21.84 24.4661 21.32C24.0661 21.96 23.5161 22.47 22.8161 22.85C22.1161 23.23 21.2661 23.42 20.2661 23.42C19.4461 23.42 18.7161 23.29 18.0761 23.03C17.4361 22.79 16.8961 22.46 16.4561 22.04C16.0161 21.62 15.6761 21.14 15.4361 20.6C15.2161 20.06 15.1061 19.49 15.1061 18.89ZM21.3761 20.12C21.7161 20.12 22.0461 20.08 22.3661 20C22.7061 19.9 22.9961 19.74 23.2361 19.52C23.4961 19.28 23.7061 18.97 23.8661 18.59C24.0261 18.21 24.1061 17.73 24.1061 17.15V16.49L21.2861 16.94C20.8061 17.02 20.4061 17.19 20.0861 17.45C19.7661 17.69 19.6061 18.07 19.6061 18.59C19.6061 18.99 19.7361 19.35 19.9961 19.67C20.2761 19.97 20.7361 20.12 21.3761 20.12ZM37.6966 8.09H40.6066V12.08H37.6966V17.66C37.6966 18.28 37.8466 18.7 38.1466 18.92C38.4466 19.12 38.8466 19.22 39.3466 19.22C39.5866 19.22 39.8066 19.21 40.0066 19.19C40.2266 19.15 40.4066 19.11 40.5466 19.07V22.85C40.4466 22.89 40.2066 22.97 39.8266 23.09C39.4466 23.21 38.8966 23.27 38.1766 23.27C36.6166 23.27 35.3966 22.85 34.5166 22.01C33.6366 21.15 33.1966 19.97 33.1966 18.47V12.08H30.5566V8.09H31.3066C32.0866 8.09 32.6666 7.86 33.0466 7.4C33.4266 6.94 33.6166 6.36 33.6166 5.66V3.74H37.6966V8.09ZM43.8381 23V8.09H48.3981V23H43.8381ZM43.4481 3.53C43.4481 3.17 43.5181 2.83 43.6581 2.51C43.7981 2.17 43.9881 1.88 44.2281 1.64C44.4681 1.4 44.7481 1.21 45.0681 1.07C45.3881 0.929999 45.7281 0.859999 46.0881 0.859999C46.8481 0.859999 47.4881 1.12 48.0081 1.64C48.5281 2.16 48.7881 2.79 48.7881 3.53C48.7881 4.27 48.5281 4.9 48.0081 5.42C47.4881 5.94 46.8481 6.2 46.0881 6.2C45.7281 6.2 45.3881 6.13 45.0681 5.99C44.7481 5.85 44.4681 5.66 44.2281 5.42C43.9881 5.18 43.7981 4.9 43.6581 4.58C43.5181 4.24 43.4481 3.89 43.4481 3.53ZM55.3628 22.7C55.5228 23.42 55.8828 24.01 56.4428 24.47C57.0028 24.95 57.7128 25.19 58.5728 25.19C59.7128 25.19 60.6128 24.89 61.2728 24.29C61.9328 23.71 62.2628 22.74 62.2628 21.38V20.69C61.9828 21.09 61.5128 21.47 60.8528 21.83C60.2128 22.19 59.3528 22.37 58.2728 22.37C57.2728 22.37 56.3528 22.19 55.5128 21.83C54.6728 21.45 53.9428 20.94 53.3228 20.3C52.7028 19.64 52.2128 18.87 51.8528 17.99C51.5128 17.11 51.3428 16.15 51.3428 15.11C51.3428 14.13 51.5128 13.2 51.8528 12.32C52.1928 11.44 52.6628 10.67 53.2628 10.01C53.8828 9.33 54.6128 8.8 55.4528 8.42C56.3128 8.02 57.2528 7.82 58.2728 7.82C58.8728 7.82 59.4028 7.88 59.8628 8C60.3428 8.12 60.7528 8.27 61.0928 8.45C61.4328 8.63 61.7128 8.83 61.9328 9.05C62.1528 9.27 62.3128 9.48 62.4128 9.68V8.09H66.7628V21.14C66.7628 22.22 66.6028 23.24 66.2828 24.2C65.9828 25.16 65.5028 26.01 64.8428 26.75C64.2028 27.49 63.3828 28.07 62.3828 28.49C61.3828 28.93 60.1828 29.15 58.7828 29.15C57.7028 29.15 56.7228 29 55.8428 28.7C54.9828 28.4 54.2328 28 53.5928 27.5C52.9728 27 52.4628 26.43 52.0628 25.79C51.6828 25.15 51.4428 24.5 51.3428 23.84L55.3628 22.7ZM59.1128 18.41C60.0528 18.41 60.8128 18.12 61.3928 17.54C61.9928 16.94 62.2928 16.13 62.2928 15.11C62.2928 14.61 62.2028 14.16 62.0228 13.76C61.8628 13.34 61.6328 12.99 61.3328 12.71C61.0528 12.41 60.7128 12.19 60.3128 12.05C59.9328 11.89 59.5328 11.81 59.1128 11.81C58.6928 11.81 58.2828 11.89 57.8828 12.05C57.5028 12.19 57.1628 12.41 56.8628 12.71C56.5628 12.99 56.3228 13.34 56.1428 13.76C55.9828 14.16 55.9028 14.61 55.9028 15.11C55.9028 16.13 56.2028 16.94 56.8028 17.54C57.4228 18.12 58.1928 18.41 59.1128 18.41ZM80.099 23C80.059 22.86 80.029 22.63 80.009 22.31C79.989 21.97 79.979 21.7 79.979 21.5C79.579 22.14 78.999 22.61 78.239 22.91C77.499 23.19 76.749 23.33 75.989 23.33C75.089 23.33 74.279 23.18 73.559 22.88C72.859 22.56 72.269 22.14 71.789 21.62C71.309 21.08 70.939 20.46 70.679 19.76C70.439 19.06 70.319 18.31 70.319 17.51V8.09H74.879V16.55C74.879 17.27 75.069 17.88 75.449 18.38C75.849 18.88 76.459 19.13 77.279 19.13C78.039 19.13 78.639 18.9 79.079 18.44C79.539 17.96 79.769 17.34 79.769 16.58V8.09H84.329V20.33C84.329 21.01 84.349 21.6 84.389 22.1C84.429 22.58 84.459 22.88 84.479 23H80.099ZM97.7308 13.76C97.7108 13.48 97.6408 13.19 97.5208 12.89C97.4208 12.59 97.2508 12.32 97.0108 12.08C96.7708 11.84 96.4608 11.64 96.0808 11.48C95.7208 11.32 95.2708 11.24 94.7308 11.24C94.2508 11.24 93.8308 11.32 93.4708 11.48C93.1108 11.64 92.8008 11.84 92.5408 12.08C92.3008 12.32 92.1108 12.59 91.9708 12.89C91.8508 13.19 91.7808 13.48 91.7608 13.76H97.7308ZM101.871 18.71C101.691 19.35 101.411 19.96 101.031 20.54C100.651 21.12 100.171 21.63 99.5908 22.07C99.0108 22.49 98.3308 22.82 97.5508 23.06C96.7908 23.32 95.9408 23.45 95.0008 23.45C93.9808 23.45 93.0008 23.27 92.0608 22.91C91.1208 22.55 90.2908 22.03 89.5708 21.35C88.8508 20.67 88.2808 19.84 87.8608 18.86C87.4408 17.88 87.2308 16.76 87.2308 15.5C87.2308 14.3 87.4308 13.22 87.8308 12.26C88.2508 11.28 88.8008 10.45 89.4808 9.77C90.1808 9.09 90.9808 8.57 91.8808 8.21C92.7808 7.83 93.7108 7.64 94.6708 7.64C96.9908 7.64 98.8108 8.31 100.131 9.65C101.471 10.99 102.141 12.87 102.141 15.29C102.141 15.61 102.131 15.92 102.111 16.22C102.091 16.5 102.071 16.66 102.051 16.7H91.6708C91.6908 17.12 91.7908 17.51 91.9708 17.87C92.1708 18.21 92.4208 18.51 92.7208 18.77C93.0408 19.03 93.4008 19.23 93.8008 19.37C94.2008 19.51 94.6208 19.58 95.0608 19.58C95.9008 19.58 96.5508 19.4 97.0108 19.04C97.4908 18.68 97.8408 18.21 98.0608 17.63L101.871 18.71ZM113.409 4.46V23H110.469V4.46H103.359V1.73H120.519V4.46H113.409ZM130.091 14.3C130.051 13.26 129.701 12.39 129.041 11.69C128.381 10.97 127.411 10.61 126.131 10.61C125.531 10.61 124.991 10.72 124.511 10.94C124.051 11.14 123.651 11.42 123.311 11.78C122.991 12.12 122.731 12.51 122.531 12.95C122.331 13.39 122.221 13.84 122.201 14.3H130.091ZM132.941 18.89C132.741 19.53 132.441 20.13 132.041 20.69C131.661 21.23 131.191 21.71 130.631 22.13C130.091 22.53 129.471 22.85 128.771 23.09C128.071 23.33 127.301 23.45 126.461 23.45C125.501 23.45 124.581 23.28 123.701 22.94C122.821 22.6 122.041 22.1 121.361 21.44C120.701 20.78 120.171 19.97 119.771 19.01C119.391 18.05 119.201 16.96 119.201 15.74C119.201 14.6 119.391 13.57 119.771 12.65C120.151 11.71 120.651 10.91 121.271 10.25C121.911 9.57 122.651 9.05 123.491 8.69C124.331 8.31 125.201 8.12 126.101 8.12C127.201 8.12 128.181 8.31 129.041 8.69C129.921 9.05 130.651 9.56 131.231 10.22C131.811 10.88 132.251 11.68 132.551 12.62C132.871 13.54 133.031 14.56 133.031 15.68C133.031 15.86 133.021 16.03 133.001 16.19C133.001 16.35 132.991 16.48 132.971 16.58H122.111C122.131 17.22 122.251 17.81 122.471 18.35C122.691 18.89 122.991 19.36 123.371 19.76C123.771 20.14 124.231 20.44 124.751 20.66C125.291 20.86 125.861 20.96 126.461 20.96C127.641 20.96 128.541 20.68 129.161 20.12C129.781 19.56 130.231 18.87 130.511 18.05L132.941 18.89ZM137.83 18.35C137.93 19.11 138.26 19.75 138.82 20.27C139.38 20.79 140.17 21.05 141.19 21.05C141.99 21.05 142.6 20.86 143.02 20.48C143.44 20.1 143.65 19.65 143.65 19.13C143.65 18.67 143.49 18.28 143.17 17.96C142.85 17.64 142.39 17.41 141.79 17.27L139.33 16.73C138.19 16.49 137.3 16.01 136.66 15.29C136.04 14.57 135.73 13.7 135.73 12.68C135.73 12.06 135.86 11.48 136.12 10.94C136.4 10.38 136.77 9.89 137.23 9.47C137.69 9.05 138.23 8.72 138.85 8.48C139.49 8.24 140.16 8.12 140.86 8.12C141.84 8.12 142.66 8.26 143.32 8.54C144 8.82 144.55 9.17 144.97 9.59C145.39 9.99 145.7 10.41 145.9 10.85C146.12 11.29 146.27 11.67 146.35 11.99L143.86 12.92C143.82 12.74 143.75 12.51 143.65 12.23C143.55 11.95 143.39 11.69 143.17 11.45C142.95 11.19 142.65 10.97 142.27 10.79C141.89 10.61 141.42 10.52 140.86 10.52C140.14 10.52 139.56 10.72 139.12 11.12C138.68 11.5 138.46 11.94 138.46 12.44C138.46 13.36 139.01 13.94 140.11 14.18L142.45 14.69C143.77 14.97 144.76 15.49 145.42 16.25C146.1 16.99 146.44 17.9 146.44 18.98C146.44 19.5 146.33 20.02 146.11 20.54C145.89 21.06 145.56 21.54 145.12 21.98C144.7 22.42 144.16 22.77 143.5 23.03C142.84 23.31 142.06 23.45 141.16 23.45C140.16 23.45 139.3 23.31 138.58 23.03C137.88 22.75 137.29 22.4 136.81 21.98C136.35 21.56 135.99 21.11 135.73 20.63C135.49 20.13 135.34 19.67 135.28 19.25L137.83 18.35ZM153.975 8.57H157.095V11.12H153.975V18.62C153.975 19.28 154.125 19.78 154.425 20.12C154.725 20.44 155.245 20.6 155.985 20.6C156.165 20.6 156.365 20.59 156.585 20.57C156.805 20.55 156.975 20.52 157.095 20.48V22.88C156.975 22.92 156.745 22.97 156.405 23.03C156.065 23.11 155.655 23.15 155.175 23.15C153.935 23.15 152.955 22.8 152.235 22.1C151.515 21.38 151.155 20.36 151.155 19.04V11.12H148.395V8.57H149.175C149.955 8.57 150.515 8.36 150.855 7.94C151.215 7.52 151.395 6.99 151.395 6.35V4.01H153.975V8.57ZM170.433 14.3C170.393 13.26 170.043 12.39 169.383 11.69C168.723 10.97 167.753 10.61 166.473 10.61C165.873 10.61 165.333 10.72 164.853 10.94C164.393 11.14 163.993 11.42 163.653 11.78C163.333 12.12 163.073 12.51 162.873 12.95C162.673 13.39 162.563 13.84 162.543 14.3H170.433ZM173.283 18.89C173.083 19.53 172.783 20.13 172.383 20.69C172.003 21.23 171.533 21.71 170.973 22.13C170.433 22.53 169.813 22.85 169.113 23.09C168.413 23.33 167.643 23.45 166.803 23.45C165.843 23.45 164.923 23.28 164.043 22.94C163.163 22.6 162.383 22.1 161.703 21.44C161.043 20.78 160.513 19.97 160.113 19.01C159.733 18.05 159.543 16.96 159.543 15.74C159.543 14.6 159.733 13.57 160.113 12.65C160.493 11.71 160.993 10.91 161.613 10.25C162.253 9.57 162.993 9.05 163.833 8.69C164.673 8.31 165.543 8.12 166.443 8.12C167.543 8.12 168.523 8.31 169.383 8.69C170.263 9.05 170.993 9.56 171.573 10.22C172.153 10.88 172.593 11.68 172.893 12.62C173.213 13.54 173.373 14.56 173.373 15.68C173.373 15.86 173.363 16.03 173.343 16.19C173.343 16.35 173.333 16.48 173.312 16.58H162.453C162.473 17.22 162.593 17.81 162.813 18.35C163.033 18.89 163.333 19.36 163.713 19.76C164.113 20.14 164.573 20.44 165.093 20.66C165.633 20.86 166.203 20.96 166.803 20.96C167.983 20.96 168.883 20.68 169.503 20.12C170.123 19.56 170.573 18.87 170.853 18.05L173.283 18.89ZM184.982 11.42C184.562 11.36 184.152 11.33 183.752 11.33C182.572 11.33 181.612 11.68 180.872 12.38C180.152 13.06 179.792 14.19 179.792 15.77V23H176.972V8.57H179.732V11.09C179.992 10.53 180.292 10.08 180.632 9.74C180.992 9.38 181.362 9.1 181.742 8.9C182.122 8.68 182.512 8.53 182.912 8.45C183.312 8.37 183.692 8.33 184.052 8.33C184.252 8.33 184.432 8.34 184.592 8.36C184.772 8.38 184.902 8.4 184.982 8.42V11.42Z" fill="#C91C22"/>
</svg>
