<svg width="85" height="85" viewBox="0 0 85 85" fill="none" xmlns="http://www.w3.org/2000/svg">
<path fill-rule="evenodd" clip-rule="evenodd" d="M12.875 0C14.5319 0 15.875 1.34315 15.875 3V49.7294C18.1673 50.2787 20.2849 51.4519 21.979 53.146C24.3935 55.5605 25.75 58.8353 25.75 62.25C25.75 65.6647 24.3935 68.9395 21.979 71.354C20.2849 73.0481 18.1673 74.2214 15.875 74.7707V82C15.875 83.6569 14.5319 85 12.875 85C11.2181 85 9.875 83.6569 9.875 82V74.7707C7.58272 74.2214 5.46511 73.0481 3.771 71.354C1.35647 68.9395 0 65.6647 0 62.25C0 58.8353 1.35647 55.5605 3.771 53.146C5.46511 51.4519 7.58272 50.2786 9.875 49.7293V3C9.875 1.34315 11.2181 0 12.875 0ZM42.5 0C44.1569 0 45.5 1.34315 45.5 3V10.2293C47.7923 10.7786 49.9099 11.9519 51.604 13.646C54.0185 16.0605 55.375 19.3353 55.375 22.75C55.375 26.1647 54.0185 29.4395 51.604 31.854C49.9099 33.5481 47.7923 34.7214 45.5 35.2707V82C45.5 83.6569 44.1569 85 42.5 85C40.8431 85 39.5 83.6569 39.5 82V35.2707C37.2077 34.7214 35.0901 33.5481 33.396 31.854C30.9815 29.4395 29.625 26.1647 29.625 22.75C29.625 19.3353 30.9815 16.0605 33.396 13.646C35.0901 11.9519 37.2077 10.7786 39.5 10.2293V3C39.5 1.34315 40.8431 0 42.5 0ZM72.125 0C73.7819 0 75.125 1.34315 75.125 3V49.7293C77.4173 50.2786 79.5349 51.4519 81.229 53.146C83.6435 55.5605 85 58.8353 85 62.25C85 65.6647 83.6435 68.9395 81.229 71.354C79.5349 73.0481 77.4173 74.2214 75.125 74.7707V82C75.125 83.6569 73.7819 85 72.125 85C70.4681 85 69.125 83.6569 69.125 82V74.7707C66.8327 74.2214 64.7151 73.0481 63.021 71.354C60.6065 68.9395 59.25 65.6647 59.25 62.25C59.25 58.8353 60.6065 55.5605 63.021 53.146C64.7151 51.4519 66.8327 50.2786 69.125 49.7293V3C69.125 1.34315 70.4681 0 72.125 0ZM42.5 15.875C40.6766 15.875 38.928 16.5993 37.6386 17.8886C36.3493 19.178 35.625 20.9266 35.625 22.75C35.625 24.5734 36.3493 26.322 37.6386 27.6114C38.928 28.9007 40.6766 29.625 42.5 29.625C44.3234 29.625 46.072 28.9007 47.3614 27.6114C48.6507 26.322 49.375 24.5734 49.375 22.75C49.375 20.9266 48.6507 19.178 47.3614 17.8886C46.072 16.5993 44.3234 15.875 42.5 15.875ZM12.875 55.375C11.0516 55.375 9.30295 56.0993 8.01364 57.3886C6.72433 58.678 6 60.4266 6 62.25C6 64.0734 6.72433 65.822 8.01364 67.1114C9.30295 68.4007 11.0516 69.125 12.875 69.125C14.6984 69.125 16.447 68.4007 17.7364 67.1114C19.0257 65.822 19.75 64.0734 19.75 62.25C19.75 60.4266 19.0257 58.678 17.7364 57.3886C16.447 56.0993 14.6984 55.375 12.875 55.375ZM72.125 55.375C70.3016 55.375 68.553 56.0993 67.2636 57.3886C65.9743 58.678 65.25 60.4266 65.25 62.25C65.25 64.0734 65.9743 65.822 67.2636 67.1114C68.553 68.4007 70.3016 69.125 72.125 69.125C73.9484 69.125 75.697 68.4007 76.9864 67.1114C78.2757 65.822 79 64.0734 79 62.25C79 60.4266 78.2757 58.678 76.9864 57.3886C75.697 56.0993 73.9484 55.375 72.125 55.375Z" fill="#414042"/>
</svg>
