<svg width="34" height="24" viewBox="0 0 34 24" fill="none" xmlns="http://www.w3.org/2000/svg">
<path d="M5.33334 23.6666H3.66668L2.58334 20.3333H0.333344V11.9583C0.333344 11.0416 0.66001 10.2638 1.31334 9.62492C1.96557 8.98603 2.75001 8.66659 3.66668 8.66659V3.66659C3.66668 2.74992 3.99334 1.96547 4.64668 1.31325C5.2989 0.659918 6.08334 0.333252 7.00001 0.333252H27C27.9167 0.333252 28.7017 0.659918 29.355 1.31325C30.0072 1.96547 30.3333 2.74992 30.3333 3.66659V8.66659C31.25 8.66659 32.035 8.9927 32.6883 9.64492C33.3406 10.2983 33.6667 11.0833 33.6667 11.9999V20.3333H31.4167L30.3333 23.6666H28.6667L27.5833 20.3333H6.41668L5.33334 23.6666ZM18.6667 8.66659H27V3.66659H18.6667V8.66659ZM7.00001 8.66659H15.3333V3.66659H7.00001V8.66659ZM3.66668 16.9999H30.3333V11.9999H3.66668V16.9999Z" fill="#C91C22"/>
</svg>
