<svg width="16" height="16" viewBox="0 0 16 16" fill="none" xmlns="http://www.w3.org/2000/svg">
<path d="M4.66667 12.1667C4.90278 12.1667 5.10083 12.0867 5.26083 11.9267C5.42028 11.7672 5.5 11.5694 5.5 11.3333C5.5 11.0972 5.42028 10.8992 5.26083 10.7392C5.10083 10.5797 4.90278 10.5 4.66667 10.5C4.43056 10.5 4.2325 10.5797 4.0725 10.7392C3.91306 10.8992 3.83333 11.0972 3.83333 11.3333C3.83333 11.5694 3.91306 11.7672 4.0725 11.9267C4.2325 12.0867 4.43056 12.1667 4.66667 12.1667ZM4.66667 8.83333C4.90278 8.83333 5.10083 8.75333 5.26083 8.59333C5.42028 8.43389 5.5 8.23611 5.5 8C5.5 7.76389 5.42028 7.56583 5.26083 7.40583C5.10083 7.24639 4.90278 7.16667 4.66667 7.16667C4.43056 7.16667 4.2325 7.24639 4.0725 7.40583C3.91306 7.56583 3.83333 7.76389 3.83333 8C3.83333 8.23611 3.91306 8.43389 4.0725 8.59333C4.2325 8.75333 4.43056 8.83333 4.66667 8.83333ZM4.66667 5.5C4.90278 5.5 5.10083 5.42 5.26083 5.26C5.42028 5.10056 5.5 4.90278 5.5 4.66667C5.5 4.43056 5.42028 4.2325 5.26083 4.0725C5.10083 3.91306 4.90278 3.83333 4.66667 3.83333C4.43056 3.83333 4.2325 3.91306 4.0725 4.0725C3.91306 4.2325 3.83333 4.43056 3.83333 4.66667C3.83333 4.90278 3.91306 5.10056 4.0725 5.26C4.2325 5.42 4.43056 5.5 4.66667 5.5ZM7.16667 12.1667H12.1667V10.5H7.16667V12.1667ZM7.16667 8.83333H12.1667V7.16667H7.16667V8.83333ZM7.16667 5.5H12.1667V3.83333H7.16667V5.5ZM2.16667 15.5C1.70833 15.5 1.31583 15.3369 0.989167 15.0108C0.663055 14.6842 0.5 14.2917 0.5 13.8333V2.16667C0.5 1.70833 0.663055 1.31583 0.989167 0.989167C1.31583 0.663055 1.70833 0.5 2.16667 0.5H13.8333C14.2917 0.5 14.6842 0.663055 15.0108 0.989167C15.3369 1.31583 15.5 1.70833 15.5 2.16667V13.8333C15.5 14.2917 15.3369 14.6842 15.0108 15.0108C14.6842 15.3369 14.2917 15.5 13.8333 15.5H2.16667ZM2.16667 13.8333H13.8333V2.16667H2.16667V13.8333Z" fill="#C91C22"/>
</svg>
