<svg width="18" height="19" viewBox="0 0 18 19" fill="none" xmlns="http://www.w3.org/2000/svg">
<path d="M17.3333 13.1683C17.333 14.3079 16.9434 15.4133 16.2292 16.3013C15.5149 17.1894 14.5189 17.8069 13.4058 18.0516L12.8742 16.4566C13.361 16.3764 13.824 16.1892 14.2298 15.9085C14.6356 15.6278 14.9741 15.2606 15.2208 14.8333H13.1667C12.7246 14.8333 12.3007 14.6577 11.9881 14.3451C11.6756 14.0326 11.5 13.6087 11.5 13.1666V9.83329C11.5 9.39127 11.6756 8.96734 11.9881 8.65478C12.3007 8.34222 12.7246 8.16663 13.1667 8.16663H15.615C15.4116 6.55571 14.6274 5.07435 13.4095 4.00052C12.1916 2.92669 10.6237 2.33419 8.99999 2.33419C7.37628 2.33419 5.80838 2.92669 4.59047 4.00052C3.37256 5.07435 2.58835 6.55571 2.38499 8.16663H4.83332C5.27535 8.16663 5.69927 8.34222 6.01183 8.65478C6.3244 8.96734 6.49999 9.39127 6.49999 9.83329V13.1666C6.49999 13.6087 6.3244 14.0326 6.01183 14.3451C5.69927 14.6577 5.27535 14.8333 4.83332 14.8333H2.33332C1.8913 14.8333 1.46737 14.6577 1.15481 14.3451C0.842251 14.0326 0.666656 13.6087 0.666656 13.1666V8.99996C0.666656 4.39746 4.39749 0.666626 8.99999 0.666626C13.6025 0.666626 17.3333 4.39746 17.3333 8.99996V13.1683ZM15.6667 13.1666V9.83329H13.1667V13.1666H15.6667ZM2.33332 9.83329V13.1666H4.83332V9.83329H2.33332Z" fill="#C91C22"/>
</svg>
